<svg width="140" height="31" viewBox="0 0 140 31" fill="none" xmlns="http://www.w3.org/2000/svg">
<path d="M3.88554 1.19766H8.31421C10.2639 1.19766 11.9073 1.49012 13.2442 2.07504C14.6091 2.65996 15.6396 3.48163 16.336 4.54006C17.0323 5.57063 17.3805 6.78225 17.3805 8.17491C17.3805 9.34475 17.1576 10.3753 16.712 11.2666C16.2663 12.1301 15.6953 12.8403 14.999 13.3974C14.3027 13.9266 13.5646 14.3026 12.7847 14.5255C14.2609 14.7483 15.5282 15.2357 16.5866 15.9878C17.6729 16.7398 18.4946 17.6868 19.0517 18.8288C19.6366 19.9429 19.929 21.1963 19.929 22.589C19.929 24.1488 19.553 25.5275 18.801 26.7252C18.0489 27.8951 16.9348 28.8142 15.4586 29.4827C14.0102 30.1233 12.2555 30.4436 10.1943 30.4436H5.55673C5.55673 30.4436 5.55673 30.3183 5.55673 30.0676C5.58459 29.8169 5.59851 29.5662 5.59851 29.3156C5.59851 29.0649 5.59851 28.9395 5.59851 28.9395H10.0272C11.4756 28.9395 12.7011 28.6889 13.7038 28.1875C14.7065 27.6583 15.4725 26.8923 16.0017 25.8896C16.5309 24.8869 16.7955 23.6892 16.7955 22.2965C16.7955 20.7367 16.4892 19.4694 15.8764 18.4946C15.2915 17.5197 14.5255 16.7816 13.5785 16.2802C12.6315 15.7789 11.6009 15.4446 10.4868 15.2775C9.40049 15.0825 8.35599 14.985 7.35327 14.985V14.609C7.9939 14.609 8.70415 14.5394 9.48405 14.4001C10.2639 14.2609 11.016 13.9823 11.7402 13.5645C12.4644 13.1467 13.0632 12.534 13.5367 11.7262C14.0102 10.8906 14.247 9.80433 14.247 8.46737C14.247 7.21397 14.0102 6.14162 13.5367 5.25032C13.0911 4.35901 12.4086 3.69053 11.4895 3.24488C10.5982 2.77137 9.48405 2.53462 8.14709 2.53462H4.30333C4.30333 2.50677 4.26155 2.39535 4.17799 2.20038C4.12229 1.97756 4.05265 1.75473 3.96909 1.5319C3.91339 1.30908 3.88554 1.19766 3.88554 1.19766ZM5.93275 1.19766V30.4436H3.21706V1.19766H5.93275ZM3.3424 27.3937V30.4436H0L0.04178 30.0258C0.0974865 30.0258 0.181047 30.0258 0.29246 30.0258C0.431726 30.0258 0.515286 30.0258 0.54314 30.0258C1.26733 30.0258 1.89402 29.7751 2.42324 29.2738C2.95245 28.7446 3.21706 28.1179 3.21706 27.3937H3.3424ZM3.3424 4.2476H3.21706C3.21706 3.52341 2.95245 2.91064 2.42324 2.40928C1.89402 1.88007 1.26733 1.61546 0.54314 1.61546C0.515286 1.61546 0.431726 1.61546 0.29246 1.61546C0.181047 1.61546 0.0974865 1.61546 0.04178 1.61546L0 1.19766H3.3424V4.2476Z" fill="white"/>
<path d="M29.462 1.19766H35.353C36.6064 1.19766 37.7345 1.37871 38.7372 1.7408C39.7678 2.1029 40.6312 2.63211 41.3275 3.32844C42.0239 3.99692 42.5531 4.81859 42.9152 5.79346C43.3051 6.74047 43.5001 7.82675 43.5001 9.05229C43.5001 10.3893 43.1798 11.6705 42.5392 12.896C41.9264 14.1216 41.0769 15.1243 39.9906 15.9042C38.9322 16.6562 37.7345 17.0323 36.3975 17.0323C36.871 17.2272 37.3863 17.6311 37.9434 18.2439C38.5004 18.8288 38.9879 19.3998 39.4057 19.9569C39.4057 19.9569 39.5867 20.2354 39.9488 20.7925C40.3388 21.3217 40.8123 21.9762 41.3693 22.7561C41.9543 23.536 42.5392 24.302 43.1241 25.054C43.709 25.806 44.2104 26.4049 44.6282 26.8505C45.1852 27.4633 45.7423 28.0065 46.2994 28.48C46.8564 28.9535 47.4553 29.3295 48.0959 29.608C48.7644 29.8866 49.5025 30.0258 50.3102 30.0258V30.4436H48.0123C46.7311 30.4436 45.617 30.2486 44.6699 29.8587C43.7508 29.4688 42.9709 28.9953 42.3303 28.4382C41.6896 27.8533 41.1465 27.2962 40.7009 26.767C40.6173 26.6556 40.3805 26.3353 39.9906 25.8061C39.6285 25.2768 39.1828 24.6501 38.6536 23.926C38.1523 23.1739 37.6509 22.4358 37.1496 21.7116C36.6482 20.9874 36.2165 20.3747 35.8544 19.8733C35.4923 19.3441 35.2834 19.0377 35.2277 18.9541C34.6985 18.2578 34.1135 17.6172 33.4729 17.0323C32.8323 16.4473 32.136 16.1549 31.3839 16.1549V15.7371C31.3839 15.7371 31.5928 15.751 32.0106 15.7789C32.4563 15.7789 32.9855 15.7649 33.5983 15.7371C34.3224 15.7092 35.1163 15.5978 35.9797 15.4028C36.8432 15.2079 37.6509 14.804 38.403 14.1912C39.155 13.5785 39.726 12.6454 40.1159 11.392C40.1995 11.0856 40.2691 10.7096 40.3248 10.2639C40.3805 9.79041 40.3945 9.33083 40.3666 8.88517C40.3388 6.99115 39.8513 5.48707 38.9043 4.37294C37.9852 3.23095 36.7457 2.61818 35.1859 2.53462C34.406 2.47892 33.5983 2.46499 32.7627 2.49284C31.9549 2.49284 31.2725 2.49284 30.7154 2.49284C30.1584 2.49284 29.8798 2.49284 29.8798 2.49284C29.8798 2.46499 29.8381 2.35358 29.7545 2.1586C29.6988 1.93577 29.6292 1.72688 29.5456 1.5319C29.4899 1.30908 29.462 1.19766 29.462 1.19766ZM30.0052 1.19766V30.4436H27.2895V1.19766H30.0052ZM27.4148 27.3937V30.4436H24.0724V30.0258C24.0724 30.0258 24.156 30.0258 24.3231 30.0258C24.5181 30.0258 24.6156 30.0258 24.6156 30.0258C25.3398 30.0258 25.9525 29.7751 26.4539 29.2738C26.9831 28.7446 27.2616 28.1179 27.2895 27.3937H27.4148ZM27.4148 4.2476H27.2895C27.2616 3.52341 26.9831 2.91064 26.4539 2.40928C25.9525 1.88007 25.3398 1.61546 24.6156 1.61546C24.6156 1.61546 24.5181 1.61546 24.3231 1.61546C24.156 1.61546 24.0724 1.61546 24.0724 1.61546V1.19766H27.4148V4.2476ZM29.8798 27.3937H30.0052C30.0052 28.1179 30.2698 28.7446 30.799 29.2738C31.3282 29.7751 31.9549 30.0258 32.6791 30.0258C32.6791 30.0258 32.7627 30.0258 32.9298 30.0258C33.0969 30.0258 33.1805 30.0258 33.1805 30.0258V30.4436H29.8798V27.3937Z" fill="white"/>
<path d="M107.606 0.61277C107.606 0.61277 107.606 0.682402 107.606 0.821669C107.606 0.933082 107.606 0.98879 107.606 0.98879L88.9726 30.4437H85.8809V30.0676L103.428 2.40931H86.4658V1.15591H103.178C103.735 1.15591 104.32 1.12806 104.933 1.07235C105.573 1.01664 106.13 0.94701 106.604 0.863451C107.105 0.779891 107.439 0.69633 107.606 0.61277ZM107.899 29.1903L107.648 30.4437H88.5548V29.1903H107.899ZM109.152 24.0095L107.774 30.4437H102.259L102.551 29.3992L103.011 29.1903C104.57 29.1903 105.81 28.6889 106.729 27.6862C107.676 26.6835 108.345 25.4579 108.734 24.0095H109.152ZM89.3486 2.40931C88.6523 2.43716 88.0673 2.68784 87.5938 3.16135C87.1203 3.63485 86.8836 4.21977 86.8836 4.91611V5.66814H86.4658V2.28397H89.3486V2.40931ZM86.4658 0.40387C86.7443 0.515283 87.1621 0.626697 87.7192 0.73811C88.3041 0.849524 88.9447 0.94701 89.6411 1.03057C90.3374 1.11413 90.978 1.15591 91.5629 1.15591L86.4658 1.61549V0.40387Z" fill="white"/>
<path d="M119.028 1.19769V30.4437H116.312V1.19769H119.028ZM116.437 27.3937V30.4437H113.095V30.0259C113.095 30.0259 113.179 30.0259 113.346 30.0259C113.541 30.0259 113.638 30.0259 113.638 30.0259C114.362 30.0259 114.975 29.7752 115.476 29.2738C116.006 28.7446 116.284 28.1179 116.312 27.3937H116.437ZM116.437 4.24762H116.312C116.284 3.52344 116.006 2.91067 115.476 2.40931C114.975 1.88009 114.362 1.61549 113.638 1.61549C113.638 1.61549 113.541 1.61549 113.346 1.61549C113.179 1.61549 113.095 1.61549 113.095 1.61549V1.19769H116.437V4.24762ZM118.902 27.3937H119.028C119.056 28.1179 119.32 28.7446 119.822 29.2738C120.351 29.7752 120.977 30.0259 121.702 30.0259C121.702 30.0259 121.785 30.0259 121.952 30.0259C122.119 30.0259 122.217 30.0259 122.245 30.0259V30.4437H118.902V27.3937ZM118.902 4.24762V1.19769H122.245V1.61549C122.217 1.61549 122.119 1.61549 121.952 1.61549C121.785 1.61549 121.702 1.61549 121.702 1.61549C120.977 1.61549 120.351 1.88009 119.822 2.40931C119.32 2.91067 119.056 3.52344 119.028 4.24762H118.902Z" fill="white"/>
<path d="M56.505 0.50136V19.9987H54.6945V0.50136H56.505ZM64.0254 19.1352V19.9987H56.4214V19.1352H64.0254ZM62.8277 9.97148V10.8071H56.4214V9.97148H62.8277ZM64.0254 0.50136V1.36481H56.4214V0.50136H64.0254ZM65.7244 15.4864L64.1089 19.9987H59.4853L60.488 19.1352C61.4721 19.1352 62.2706 18.9867 62.8834 18.6896C63.5147 18.3739 64.0254 17.9375 64.4153 17.3805C64.8053 16.8234 65.1488 16.1921 65.4459 15.4864H65.7244ZM62.8277 10.7514V12.5897H62.5491V12.1719C62.5491 11.8005 62.4192 11.4848 62.1592 11.2249C61.8992 10.9463 61.5836 10.8071 61.2122 10.8071V10.7514H62.8277ZM62.8277 8.18887V10.0272H61.2122V9.97148C61.5836 9.95291 61.8992 9.81365 62.1592 9.55368C62.4192 9.27515 62.5491 8.95019 62.5491 8.57882V8.18887H62.8277ZM64.0254 1.28125V3.50952H63.7468V3.00816C63.7468 2.5625 63.589 2.18184 63.2733 1.86617C62.9577 1.53193 62.5677 1.35553 62.1035 1.33696V1.28125H64.0254ZM64.0254 0V0.807747L60.6273 0.50136C61.0358 0.50136 61.4629 0.473507 61.9085 0.417801C62.3727 0.362094 62.7998 0.297102 63.1898 0.222827C63.5797 0.148551 63.8582 0.0742756 64.0254 0ZM54.7781 17.9654V19.9987H52.5498V19.7201C52.5498 19.7201 52.6055 19.7201 52.7169 19.7201C52.8469 19.7201 52.9119 19.7201 52.9119 19.7201C53.3947 19.7201 53.8032 19.553 54.1374 19.2188C54.4903 18.866 54.6759 18.4482 54.6945 17.9654H54.7781ZM54.7781 2.53465H54.6945C54.6945 2.05186 54.5181 1.64334 54.1653 1.30911C53.8125 0.956297 53.3947 0.779892 52.9119 0.779892C52.9119 0.779892 52.8562 0.779892 52.7448 0.779892C52.6334 0.779892 52.5777 0.779892 52.5777 0.779892L52.5498 0.50136H54.7781V2.53465Z" fill="white"/>
<path d="M72.3085 0.50136V19.9987H70.498V0.50136H72.3085ZM79.8288 19.1352V19.9987H72.2249V19.1352H79.8288ZM78.6312 9.97148V10.8071H72.2249V9.97148H78.6312ZM79.8288 0.50136V1.36481H72.2249V0.50136H79.8288ZM81.5279 15.4864L79.9124 19.9987H75.2888L76.2915 19.1352C77.2756 19.1352 78.0741 18.9867 78.6869 18.6896C79.3182 18.3739 79.8288 17.9375 80.2188 17.3805C80.6087 16.8234 80.9523 16.1921 81.2494 15.4864H81.5279ZM78.6312 10.7514V12.5897H78.3526V12.1719C78.3526 11.8005 78.2226 11.4848 77.9627 11.2249C77.7027 10.9463 77.387 10.8071 77.0157 10.8071V10.7514H78.6312ZM78.6312 8.18887V10.0272H77.0157V9.97148C77.387 9.95291 77.7027 9.81365 77.9627 9.55368C78.2226 9.27515 78.3526 8.95019 78.3526 8.57882V8.18887H78.6312ZM79.8288 1.28125V3.50952H79.5503V3.00816C79.5503 2.5625 79.3925 2.18184 79.0768 1.86617C78.7611 1.53193 78.3712 1.35553 77.907 1.33696V1.28125H79.8288ZM79.8288 0V0.807747L76.4307 0.50136C76.8393 0.50136 77.2663 0.473507 77.712 0.417801C78.1762 0.362094 78.6033 0.297102 78.9932 0.222827C79.3832 0.148551 79.6617 0.0742756 79.8288 0ZM70.5816 17.9654V19.9987H68.3533V19.7201C68.3533 19.7201 68.409 19.7201 68.5204 19.7201C68.6504 19.7201 68.7154 19.7201 68.7154 19.7201C69.1982 19.7201 69.6067 19.553 69.9409 19.2188C70.2937 18.866 70.4794 18.4482 70.498 17.9654H70.5816ZM70.5816 2.53465H70.498C70.498 2.05186 70.3216 1.64334 69.9688 1.30911C69.616 0.956297 69.1982 0.779892 68.7154 0.779892C68.7154 0.779892 68.6597 0.779892 68.5483 0.779892C68.4368 0.779892 68.3811 0.779892 68.3811 0.779892L68.3533 0.50136H70.5816V2.53465Z" fill="white"/>
<path d="M130.78 0.50136V19.9987H128.97V0.50136H130.78ZM138.301 19.1352V19.9987H130.697V19.1352H138.301ZM137.103 9.97148V10.8071H130.697V9.97148H137.103ZM138.301 0.50136V1.36481H130.697V0.50136H138.301ZM140 15.4864L138.384 19.9987H133.761L134.763 19.1352C135.748 19.1352 136.546 18.9867 137.159 18.6896C137.79 18.3739 138.301 17.9375 138.691 17.3805C139.081 16.8234 139.424 16.1921 139.721 15.4864H140ZM137.103 10.7514V12.5897H136.825V12.1719C136.825 11.8005 136.695 11.4848 136.435 11.2249C136.175 10.9463 135.859 10.8071 135.488 10.8071V10.7514H137.103ZM137.103 8.18887V10.0272H135.488V9.97148C135.859 9.95291 136.175 9.81365 136.435 9.55368C136.695 9.27515 136.825 8.95019 136.825 8.57882V8.18887H137.103ZM138.301 1.28125V3.50952H138.022V3.00816C138.022 2.5625 137.864 2.18184 137.549 1.86617C137.233 1.53193 136.843 1.35553 136.379 1.33696V1.28125H138.301ZM138.301 0V0.807747L134.903 0.50136C135.311 0.50136 135.738 0.473507 136.184 0.417801C136.648 0.362094 137.075 0.297102 137.465 0.222827C137.855 0.148551 138.134 0.0742756 138.301 0ZM129.053 17.9654V19.9987H126.825V19.7201C126.825 19.7201 126.881 19.7201 126.992 19.7201C127.122 19.7201 127.187 19.7201 127.187 19.7201C127.67 19.7201 128.079 19.553 128.413 19.2188C128.766 18.866 128.951 18.4482 128.97 17.9654H129.053ZM129.053 2.53465H128.97C128.97 2.05186 128.793 1.64334 128.441 1.30911C128.088 0.956297 127.67 0.779892 127.187 0.779892C127.187 0.779892 127.132 0.779892 127.02 0.779892C126.909 0.779892 126.853 0.779892 126.853 0.779892L126.825 0.50136H129.053V2.53465Z" fill="white"/>
<g clip-path="url(#clip0_1_76)">
<path d="M56.7544 28.1225L58.5678 28.5577L59.003 30.3711L59.4382 28.5577L61.2515 28.1225L59.4382 27.6873L59.003 25.874L58.5678 27.6873L56.7544 28.1225Z" fill="white"/>
</g>
<g clip-path="url(#clip1_1_76)">
<path d="M131.03 28.1225L132.843 28.5577L133.278 30.3711L133.714 28.5577L135.527 28.1225L133.714 27.6873L133.278 25.874L132.843 27.6873L131.03 28.1225Z" fill="white"/>
</g>
<g clip-path="url(#clip2_1_76)">
<path d="M73.002 28.1225L74.8153 28.5577L75.2505 30.3711L75.6857 28.5577L77.4991 28.1225L75.6857 27.6873L75.2505 25.874L74.8153 27.6873L73.002 28.1225Z" fill="white"/>
</g>
<defs>
<clipPath id="clip0_1_76">
<rect width="4.64222" height="4.64222" fill="white" transform="translate(56.6816 25.8014)"/>
</clipPath>
<clipPath id="clip1_1_76">
<rect width="4.64222" height="4.64222" fill="white" transform="translate(130.957 25.8014)"/>
</clipPath>
<clipPath id="clip2_1_76">
<rect width="4.64222" height="4.64222" fill="white" transform="translate(72.9292 25.8014)"/>
</clipPath>
</defs>
</svg>
