<svg width="342" height="75" viewBox="0 0 342 75" fill="none" xmlns="http://www.w3.org/2000/svg">
<path d="M9.4918 2.92578H20.3104C25.0733 2.92578 29.0878 3.64022 32.3538 5.0691C35.6878 6.49797 38.2054 8.50519 39.9064 11.0908C41.6074 13.6083 42.458 16.5681 42.458 19.9702C42.458 22.8279 41.9136 25.3455 40.825 27.5228C39.7363 29.6321 38.3414 31.3672 36.6404 32.728C34.9394 34.0208 33.1363 34.9394 31.2311 35.4837C34.8373 36.028 37.9332 37.2187 40.5188 39.0559C43.1724 40.893 45.1796 43.2064 46.5405 45.9961C47.9693 48.7178 48.6838 51.7797 48.6838 55.1817C48.6838 58.9921 47.7652 62.3601 45.9281 65.2859C44.091 68.1437 41.3693 70.389 37.7631 72.022C34.2249 73.587 29.9383 74.3695 24.9032 74.3695H13.5743C13.5743 74.3695 13.5743 74.0633 13.5743 73.4509C13.6423 72.8385 13.6764 72.2261 13.6764 71.6138C13.6764 71.0014 13.6764 70.6952 13.6764 70.6952H24.495C28.0331 70.6952 31.027 70.0828 33.4765 68.8581C35.926 67.5653 37.7971 65.6942 39.0899 63.2447C40.3827 60.7952 41.0291 57.8694 41.0291 54.4673C41.0291 50.657 40.2806 47.5611 38.7837 45.1796C37.3548 42.7982 35.4837 40.9951 33.1703 39.7703C30.8569 38.5456 28.3393 37.7291 25.6177 37.3208C22.964 36.8445 20.4125 36.6064 17.963 36.6064V35.6878C19.5279 35.6878 21.263 35.5177 23.1682 35.1775C25.0733 34.8373 26.9105 34.1569 28.6795 33.1363C30.4486 32.1156 31.9115 30.6187 33.0682 28.6455C34.2249 26.6043 34.8033 23.9506 34.8033 20.6846C34.8033 17.6228 34.2249 15.0032 33.0682 12.8258C31.9796 10.6485 30.3125 9.0155 28.0672 7.92684C25.8898 6.77013 23.1682 6.19178 19.9022 6.19178H10.5124C10.5124 6.12374 10.4104 5.85157 10.2062 5.37528C10.0702 4.83095 9.90005 4.28662 9.69593 3.74228C9.55984 3.19795 9.4918 2.92578 9.4918 2.92578ZM14.4929 2.92578V74.3695H7.8588V2.92578H14.4929ZM8.16499 66.9189V74.3695H0L0.102062 73.3488C0.238145 73.3488 0.442271 73.3488 0.714437 73.3488C1.05465 73.3488 1.25877 73.3488 1.32681 73.3488C3.09589 73.3488 4.62683 72.7365 5.91962 71.5117C7.21241 70.2189 7.8588 68.688 7.8588 66.9189H8.16499ZM8.16499 10.3763H7.8588C7.8588 8.60725 7.21241 7.11034 5.91962 5.88559C4.62683 4.5928 3.09589 3.9464 1.32681 3.9464C1.25877 3.9464 1.05465 3.9464 0.714437 3.9464C0.442271 3.9464 0.238145 3.9464 0.102062 3.9464L0 2.92578H8.16499V10.3763Z" fill="#C5A56F"/>
<path d="M71.9715 2.92578H86.3623C89.4242 2.92578 92.1799 3.36805 94.6294 4.25259C97.1469 5.13714 99.2562 6.42992 100.957 8.13096C102.658 9.76396 103.951 11.7712 104.836 14.1526C105.788 16.4661 106.265 19.1197 106.265 22.1135C106.265 25.3795 105.482 28.5094 103.917 31.5033C102.42 34.4971 100.345 36.9466 97.6913 38.8517C95.1057 40.6889 92.1799 41.6074 88.9139 41.6074C90.0706 42.0837 91.3294 43.0703 92.6902 44.5672C94.051 45.9961 95.2418 47.391 96.2624 48.7518C96.2624 48.7518 96.7047 49.4322 97.5892 50.793C98.5418 52.0858 99.6985 53.6848 101.059 55.59C102.488 57.4951 103.917 59.3663 105.346 61.2034C106.775 63.0405 108 64.5034 109.02 65.5921C110.381 67.089 111.742 68.4158 113.103 69.5725C114.464 70.7292 115.926 71.6478 117.491 72.3282C119.124 73.0086 120.927 73.3488 122.901 73.3488V74.3695H117.287C114.157 74.3695 111.436 73.8932 109.122 72.9406C106.877 71.988 104.972 70.8313 103.407 69.4705C101.842 68.0416 100.515 66.6808 99.4263 65.388C99.2222 65.1158 98.6438 64.3333 97.6913 63.0405C96.8067 61.7477 95.718 60.2168 94.4253 58.4477C93.2005 56.6106 91.9758 54.8075 90.751 53.0384C89.5263 51.2693 88.4716 49.7724 87.5871 48.5477C86.7025 47.2549 86.1922 46.5064 86.0561 46.3023C84.7634 44.6013 83.3345 43.0363 81.7695 41.6074C80.2046 40.1786 78.5035 39.4641 76.6664 39.4641V38.4435C76.6664 38.4435 77.1767 38.4775 78.1973 38.5456C79.286 38.5456 80.5788 38.5115 82.0757 38.4435C83.8448 38.3755 85.784 38.1033 87.8933 37.627C90.0026 37.1507 91.9758 36.1641 93.8129 34.6672C95.65 33.1703 97.0449 30.8909 97.9974 27.829C98.2016 27.0806 98.3717 26.162 98.5078 25.0733C98.6438 23.9166 98.6779 22.7939 98.6098 21.7053C98.5418 17.0784 97.3511 13.4042 95.0376 10.6825C92.7923 7.89282 89.7644 6.39591 85.9541 6.19178C84.0489 6.0557 82.0757 6.02168 80.0345 6.08972C78.0613 6.08972 76.3942 6.08972 75.0334 6.08972C73.6726 6.08972 72.9922 6.08972 72.9922 6.08972C72.9922 6.02168 72.8901 5.74951 72.686 5.27322C72.5499 4.72888 72.3798 4.21857 72.1757 3.74228C72.0396 3.19795 71.9715 2.92578 71.9715 2.92578ZM73.2983 2.92578V74.3695H66.6643V2.92578H73.2983ZM66.9705 66.9189V74.3695H58.8055V73.3488C58.8055 73.3488 59.0096 73.3488 59.4179 73.3488C59.8941 73.3488 60.1323 73.3488 60.1323 73.3488C61.9014 73.3488 63.3983 72.7365 64.623 71.5117C65.9158 70.2189 66.5962 68.688 66.6643 66.9189H66.9705ZM66.9705 10.3763H66.6643C66.5962 8.60725 65.9158 7.11034 64.623 5.88559C63.3983 4.5928 61.9014 3.9464 60.1323 3.9464C60.1323 3.9464 59.8941 3.9464 59.4179 3.9464C59.0096 3.9464 58.8055 3.9464 58.8055 3.9464V2.92578H66.9705V10.3763ZM72.9922 66.9189H73.2983C73.2983 68.688 73.9447 70.2189 75.2375 71.5117C76.5303 72.7365 78.0613 73.3488 79.8303 73.3488C79.8303 73.3488 80.0345 73.3488 80.4427 73.3488C80.851 73.3488 81.0551 73.3488 81.0551 73.3488V74.3695H72.9922V66.9189Z" fill="#C5A56F"/>
<path d="M262.867 1.49762C262.867 1.49762 262.867 1.66772 262.867 2.00793C262.867 2.28009 262.867 2.41618 262.867 2.41618L217.348 74.3702H209.795V73.4516L252.661 5.8863H211.224V2.82443H252.049C253.41 2.82443 254.838 2.75639 256.335 2.62031C257.9 2.48422 259.261 2.31412 260.418 2.11C261.643 1.90587 262.459 1.70174 262.867 1.49762ZM263.582 71.3083L262.969 74.3702H216.327V71.3083H263.582ZM266.644 58.6525L263.276 74.3702H249.803L250.518 71.8186L251.641 71.3083C255.451 71.3083 258.479 70.0835 260.724 67.634C263.037 65.1845 264.67 62.1907 265.623 58.6525H266.644ZM218.266 5.8863C216.565 5.95434 215.136 6.56672 213.979 7.72342C212.823 8.88013 212.244 10.309 212.244 12.01V13.8472H211.224V5.58011H218.266V5.8863ZM211.224 0.987305C211.904 1.25947 212.925 1.53164 214.286 1.80381C215.715 2.07597 217.279 2.31412 218.981 2.51824C220.682 2.72237 222.247 2.82443 223.675 2.82443L211.224 3.94711V0.987305Z" fill="#C5A56F"/>
<path d="M290.768 2.92649V74.3702H284.134V2.92649H290.768ZM284.44 66.9196V74.3702H276.275V73.3495C276.275 73.3495 276.479 73.3495 276.887 73.3495C277.364 73.3495 277.602 73.3495 277.602 73.3495C279.371 73.3495 280.868 72.7372 282.093 71.5124C283.385 70.2196 284.066 68.6887 284.134 66.9196H284.44ZM284.44 10.377H284.134C284.066 8.60796 283.385 7.11105 282.093 5.8863C280.868 4.59351 279.371 3.94711 277.602 3.94711C277.602 3.94711 277.364 3.94711 276.887 3.94711C276.479 3.94711 276.275 3.94711 276.275 3.94711V2.92649H284.44V10.377ZM290.462 66.9196H290.768C290.836 68.6887 291.482 70.2196 292.707 71.5124C294 72.7372 295.531 73.3495 297.3 73.3495C297.3 73.3495 297.504 73.3495 297.912 73.3495C298.32 73.3495 298.559 73.3495 298.627 73.3495V74.3702H290.462V66.9196ZM290.462 10.377V2.92649H298.627V3.94711C298.559 3.94711 298.32 3.94711 297.912 3.94711C297.504 3.94711 297.3 3.94711 297.3 3.94711C295.531 3.94711 294 4.59351 292.707 5.8863C291.482 7.11105 290.836 8.60796 290.768 10.377H290.462Z" fill="#C5A56F"/>
<path d="M138.033 1.22475V48.8539H133.611V1.22475H138.033ZM156.405 46.7446V48.8539H137.829V46.7446H156.405ZM153.479 24.3589V26.4001H137.829V24.3589H153.479ZM156.405 1.22475V3.33404H137.829V1.22475H156.405ZM160.555 37.8311L156.609 48.8539H145.314L147.763 46.7446C150.168 46.7446 152.118 46.3817 153.615 45.6559C155.157 44.8848 156.405 43.8188 157.357 42.458C158.31 41.0971 159.149 39.5549 159.875 37.8311H160.555ZM153.479 26.2641V30.7548H152.799V29.7342C152.799 28.827 152.481 28.0558 151.846 27.4208C151.211 26.7404 150.44 26.4001 149.533 26.4001V26.2641H153.479ZM153.479 20.0042V24.495H149.533V24.3589C150.44 24.3135 151.211 23.9733 151.846 23.3383C152.481 22.6579 152.799 21.864 152.799 20.9568V20.0042H153.479ZM156.405 3.12991V8.57324H155.724V7.3485C155.724 6.25983 155.339 5.32993 154.568 4.55879C153.796 3.74229 152.844 3.31136 151.71 3.266V3.12991H156.405ZM156.405 0V1.97321L148.104 1.22475C149.102 1.22475 150.145 1.15671 151.234 1.02063C152.368 0.884543 153.411 0.725779 154.363 0.544334C155.316 0.362889 155.996 0.181445 156.405 0ZM133.815 43.8868V48.8539H128.372V48.1735C128.372 48.1735 128.508 48.1735 128.78 48.1735C129.097 48.1735 129.256 48.1735 129.256 48.1735C130.436 48.1735 131.433 47.7652 132.25 46.9487C133.112 46.0868 133.565 45.0662 133.611 43.8868H133.815ZM133.815 6.19179H133.611C133.611 5.0124 133.18 4.01446 132.318 3.19796C131.456 2.3361 130.436 1.90516 129.256 1.90516C129.256 1.90516 129.12 1.90516 128.848 1.90516C128.576 1.90516 128.44 1.90516 128.44 1.90516L128.372 1.22475H133.815V6.19179Z" fill="#C5A56F"/>
<path d="M176.639 1.22475V48.8539H172.216V1.22475H176.639ZM195.01 46.7446V48.8539H176.435V46.7446H195.01ZM192.085 24.3589V26.4001H176.435V24.3589H192.085ZM195.01 1.22475V3.33404H176.435V1.22475H195.01ZM199.161 37.8311L195.214 48.8539H183.92L186.369 46.7446C188.773 46.7446 190.724 46.3817 192.221 45.6559C193.763 44.8848 195.01 43.8188 195.963 42.458C196.916 41.0971 197.755 39.5549 198.48 37.8311H199.161ZM192.085 26.2641V30.7548H191.404V29.7342C191.404 28.827 191.087 28.0558 190.452 27.4208C189.817 26.7404 189.045 26.4001 188.138 26.4001V26.2641H192.085ZM192.085 20.0042V24.495H188.138V24.3589C189.045 24.3135 189.817 23.9733 190.452 23.3383C191.087 22.6579 191.404 21.864 191.404 20.9568V20.0042H192.085ZM195.01 3.12991V8.57324H194.33V7.3485C194.33 6.25983 193.944 5.32993 193.173 4.55879C192.402 3.74229 191.45 3.31136 190.315 3.266V3.12991H195.01ZM195.01 0V1.97321L186.709 1.22475C187.707 1.22475 188.751 1.15671 189.839 1.02063C190.973 0.884543 192.017 0.725779 192.969 0.544334C193.922 0.362889 194.602 0.181445 195.01 0ZM172.421 43.8868V48.8539H166.977V48.1735C166.977 48.1735 167.113 48.1735 167.385 48.1735C167.703 48.1735 167.862 48.1735 167.862 48.1735C169.041 48.1735 170.039 47.7652 170.856 46.9487C171.717 46.0868 172.171 45.0662 172.216 43.8868H172.421ZM172.421 6.19179H172.216C172.216 5.0124 171.785 4.01446 170.924 3.19796C170.062 2.3361 169.041 1.90516 167.862 1.90516C167.862 1.90516 167.726 1.90516 167.453 1.90516C167.181 1.90516 167.045 1.90516 167.045 1.90516L166.977 1.22475H172.421V6.19179Z" fill="#C5A56F"/>
<path d="M319.478 1.22475V48.8539H315.056V1.22475H319.478ZM337.85 46.7446V48.8539H319.274V46.7446H337.85ZM334.924 24.3589V26.4001H319.274V24.3589H334.924ZM337.85 1.22475V3.33404H319.274V1.22475H337.85ZM342 37.8311L338.054 48.8539H326.759L329.208 46.7446C331.612 46.7446 333.563 46.3817 335.06 45.6559C336.602 44.8848 337.85 43.8188 338.802 42.458C339.755 41.0971 340.594 39.5549 341.32 37.8311H342ZM334.924 26.2641V30.7548H334.243V29.7342C334.243 28.827 333.926 28.0558 333.291 27.4208C332.656 26.7404 331.885 26.4001 330.977 26.4001V26.2641H334.924ZM334.924 20.0042V24.495H330.977V24.3589C331.885 24.3135 332.656 23.9733 333.291 23.3383C333.926 22.6579 334.243 21.864 334.243 20.9568V20.0042H334.924ZM337.85 3.12991V8.57324H337.169V7.3485C337.169 6.25983 336.784 5.32993 336.012 4.55879C335.241 3.74229 334.289 3.31136 333.155 3.266V3.12991H337.85ZM337.85 0V1.97321L329.548 1.22475C330.546 1.22475 331.59 1.15671 332.678 1.02063C333.812 0.884543 334.856 0.725779 335.808 0.544334C336.761 0.362889 337.441 0.181445 337.85 0ZM315.26 43.8868V48.8539H309.816V48.1735C309.816 48.1735 309.952 48.1735 310.225 48.1735C310.542 48.1735 310.701 48.1735 310.701 48.1735C311.88 48.1735 312.878 47.7652 313.695 46.9487C314.557 46.0868 315.01 45.0662 315.056 43.8868H315.26ZM315.26 6.19179H315.056C315.056 5.0124 314.625 4.01446 313.763 3.19796C312.901 2.3361 311.88 1.90516 310.701 1.90516C310.701 1.90516 310.565 1.90516 310.293 1.90516C310.021 1.90516 309.884 1.90516 309.884 1.90516L309.816 1.22475H315.26V6.19179Z" fill="#C5A56F"/>
<g clip-path="url(#clip0_1_360)">
<path d="M138.642 68.7L143.072 69.7631L144.135 74.1929L145.198 69.7631L149.628 68.7L145.198 67.6368L144.135 63.207L143.072 67.6368L138.642 68.7Z" fill="#C5A56F"/>
</g>
<g clip-path="url(#clip1_1_360)">
<path d="M320.087 68.7L324.516 69.7631L325.58 74.1929L326.643 69.7631L331.073 68.7L326.643 67.6368L325.58 63.207L324.516 67.6368L320.087 68.7Z" fill="#C5A56F"/>
</g>
<g clip-path="url(#clip2_1_360)">
<path d="M178.333 68.7L182.763 69.7631L183.826 74.1929L184.889 69.7631L189.319 68.7L184.889 67.6368L183.826 63.207L182.763 67.6368L178.333 68.7Z" fill="#C5A56F"/>
</g>
<defs>
<clipPath id="clip0_1_360">
<rect width="11.3403" height="11.3403" fill="white" transform="translate(138.465 63.0303)"/>
</clipPath>
<clipPath id="clip1_1_360">
<rect width="11.3403" height="11.3403" fill="white" transform="translate(319.909 63.0303)"/>
</clipPath>
<clipPath id="clip2_1_360">
<rect width="11.3403" height="11.3403" fill="white" transform="translate(178.156 63.0303)"/>
</clipPath>
</defs>
</svg>
